<svg version="1.1" id="Layer_1" xmlns="http://www.w3.org/2000/svg" xmlns:xlink="http://www.w3.org/1999/xlink" x="0px" y="0px"
	 width="100%" viewBox="0 0 736 736" enable-background="new 0 0 736 736" xml:space="preserve">
<path fill="#0F98C7" opacity="1.000000" stroke="none" 
	d="
M337.000000,1.000000 
	C357.354218,1.000000 377.708466,1.000000 398.656708,1.378153 
	C400.653870,2.162719 402.037079,2.827221 403.463104,2.937324 
	C430.332031,5.011854 456.486725,10.583358 482.026611,19.065691 
	C561.813965,45.564735 625.374817,93.783295 672.393982,163.283768 
	C705.211121,211.791641 724.841675,265.465546 731.629028,323.814331 
	C735.897766,360.511414 735.026306,397.030853 728.519348,433.304199 
	C719.158203,485.488831 699.330322,533.516174 668.912537,577.008911 
	C626.088867,638.240112 569.885376,682.847656 500.200165,709.672546 
	C425.095703,738.583435 348.184723,742.440186 270.697815,720.732239 
	C177.904953,694.736450 105.939331,639.974121 55.819843,557.826050 
	C9.279731,481.544861 -5.841191,398.410034 7.291763,310.153076 
	C13.880961,265.871918 28.696091,224.371384 50.908379,185.508545 
	C76.481644,140.765305 110.123306,103.205009 151.421463,72.426407 
	C177.225616,53.195137 205.375992,38.222740 235.334351,25.985683 
	C236.124252,25.725183 236.619095,25.433195 237.082169,25.076355 
	C237.050400,25.011505 237.091324,25.149225 237.444794,25.170853 
	C239.249619,24.522242 240.700989,23.852003 242.089203,23.097677 
	C242.026047,23.013590 242.137115,23.191669 242.387009,23.209450 
	C242.765625,23.120804 242.894348,23.014381 243.346313,22.865891 
	C244.070633,22.661779 244.471695,22.499739 245.158081,22.395737 
	C246.103912,22.092922 246.764389,21.732069 247.602722,21.366198 
	C247.780579,21.361177 248.100525,21.205435 248.476318,21.224970 
	C250.884506,20.460707 252.916901,19.676910 255.239136,18.870752 
	C256.053375,18.626074 256.577789,18.403755 257.442963,18.193367 
	C258.605713,17.861032 259.427673,17.516769 260.449402,17.160706 
	C260.649200,17.148907 261.016785,16.990530 261.413086,17.021927 
	C267.479736,15.353456 273.150085,13.653590 278.878662,11.977671 
	C278.936890,12.001619 279.031097,11.918096 279.398804,11.971588 
	C281.165375,11.584858 282.564209,11.144636 284.289581,10.674712 
	C285.029938,10.508505 285.443787,10.372000 286.223022,10.315443 
	C288.700409,9.853287 290.812408,9.311180 293.264832,8.744456 
	C294.037201,8.582062 294.469086,8.444285 295.289612,8.377183 
	C306.203949,6.705760 316.729645,4.963664 327.682129,3.227570 
	C331.072662,2.489048 334.036316,1.744524 337.000000,1.000000 
M454.878113,165.168976 
	C454.878113,165.168976 454.616058,165.412018 454.480804,164.905762 
	C454.078766,164.601105 453.676727,164.296432 452.931946,163.765808 
	C452.931946,163.765808 452.758759,163.393600 452.694580,162.695160 
	C451.682434,161.960251 450.670319,161.225342 449.514374,160.491257 
	C449.514374,160.491257 449.505188,160.347778 449.548767,159.646210 
	C446.709900,157.419937 443.871002,155.193665 441.000000,153.000000 
	C441.000000,153.000000 441.029755,152.965775 440.853088,152.313339 
	C434.220795,148.000992 428.039886,142.623444 420.868073,139.584290 
	C402.397766,131.757202 382.886627,129.049789 362.783539,130.025452 
	C341.086304,131.078506 320.761993,136.410446 302.307159,148.052322 
	C300.317688,149.307343 298.977478,151.591599 297.301575,153.312180 
	C297.301575,153.312180 297.388458,153.345062 296.755676,153.454208 
	C296.065063,154.158401 295.374451,154.862610 294.632507,155.742889 
	C294.632507,155.742889 294.449158,155.747757 293.752228,155.615814 
	C288.074402,158.717178 283.251129,162.632568 281.000000,169.000000 
	C281.000000,169.000000 281.000671,169.002457 280.344696,169.167252 
	C279.691620,170.215622 279.038513,171.263992 278.022034,171.999069 
	C278.022034,171.999069 278.379700,172.317307 277.712463,172.501785 
	C276.958984,173.793701 276.205505,175.085617 275.018036,176.016968 
	C275.164856,176.134521 275.311646,176.252075 274.786316,176.554474 
	C268.889465,182.208496 265.502594,189.155716 264.104218,197.078857 
	C264.104218,197.078857 264.200897,197.118927 263.665955,197.563828 
	C257.349670,210.324631 254.864639,224.112671 254.188812,238.068268 
	C252.348618,276.067047 261.461639,312.002106 275.931610,346.816803 
	C279.238464,354.773102 281.900482,363.021973 285.607300,370.778748 
	C288.019562,375.826660 291.784637,380.228088 295.228363,385.149170 
	C295.228363,385.149170 295.340820,385.497437 295.192932,386.308655 
	C297.664673,392.887024 300.161499,399.456116 302.601105,406.046356 
	C305.057068,412.680817 306.058136,419.339172 303.278198,426.207458 
	C302.261475,428.719482 301.799164,431.455902 301.005066,434.011871 
	C301.005066,434.011871 301.096252,434.074646 300.421631,434.206512 
	C296.955627,437.233612 293.843506,440.857727 289.950775,443.164825 
	C281.578217,448.126953 273.048370,452.982758 264.121124,456.802979 
	C256.071533,460.247620 247.477158,462.513885 238.992767,464.820709 
	C230.850937,467.034363 222.521698,468.550873 214.321411,470.563599 
	C212.458847,471.020721 210.788391,472.260651 208.596146,473.460297 
	C208.069168,473.533142 207.542191,473.605988 206.341080,473.374908 
	C199.123795,474.977722 191.697723,475.977448 184.757294,478.380066 
	C179.491867,480.202850 174.844879,483.812195 169.770493,486.841614 
	C169.770493,486.841614 169.507507,486.857086 168.803101,486.883789 
	C163.252304,489.558594 156.917252,491.329010 155.155212,499.037140 
	C154.802597,499.375183 154.449982,499.713196 153.425751,500.212189 
	C150.501678,505.400116 147.348663,510.478943 144.793625,515.842651 
	C144.031342,517.442871 144.943817,519.840942 145.137939,521.894592 
	C145.137939,521.894592 145.117142,521.943787 145.102921,522.611145 
	C145.778488,523.384705 146.454056,524.158325 147.061035,524.943604 
	C147.061035,524.943604 147.085953,524.878601 147.085846,525.603638 
	C148.239258,526.887878 149.392685,528.172119 150.622406,529.474609 
	C150.622406,529.474609 150.613831,529.552551 150.449524,530.277100 
	C152.648758,532.833374 154.847992,535.389587 157.006699,537.992676 
	C157.006699,537.992676 157.056305,537.955872 157.206650,538.512085 
	C157.630341,538.875244 158.054047,539.238403 158.101288,539.997253 
	C158.230728,539.868591 158.360153,539.739929 158.440063,540.310547 
	C159.951599,541.888977 161.463150,543.467346 163.220535,545.140442 
	C163.220535,545.140442 163.300339,545.391541 163.378784,546.067871 
	C164.029007,546.604004 164.679214,547.140137 165.200974,547.776978 
	C165.200974,547.776978 165.289948,547.640076 165.418167,548.333008 
	C168.309143,551.193542 171.200134,554.054077 174.000000,557.000000 
	C174.000000,557.000000 174.088821,556.911438 174.193405,557.589417 
	C178.328903,561.407837 182.464401,565.226196 186.990753,569.201172 
	C186.990753,569.201172 187.242996,569.538269 187.436020,570.152039 
	C188.125595,570.588745 188.815170,571.025452 189.341370,571.706360 
	C189.341370,571.706360 189.538406,571.488403 189.619949,572.179260 
	C191.543228,573.639526 193.466507,575.099792 195.176834,576.910767 
	C195.176834,576.910767 195.364532,576.546204 195.485077,577.248352 
	C197.292130,578.513123 199.099182,579.777893 200.970306,581.029297 
	C200.970306,581.029297 200.963760,581.094421 201.140457,581.752258 
	C203.541153,583.361511 205.941849,584.970764 208.003387,586.978455 
	C208.118347,586.847595 208.233322,586.716736 208.479416,587.117676 
	C208.666245,587.431641 208.853073,587.745605 209.761612,588.446716 
	C211.736725,588.631958 213.711792,588.978821 215.686966,588.979309 
	C315.961884,589.003906 416.236816,589.003601 516.511719,588.965637 
	C518.640320,588.964844 520.768860,588.493042 523.658081,588.188171 
	C524.165710,588.185486 524.673401,588.182739 525.471069,588.399841 
	C525.911804,588.332153 526.352539,588.264526 527.401794,587.956665 
	C527.888000,587.530945 528.374146,587.105164 528.831116,586.779236 
	C528.831116,586.779236 528.732300,586.746887 529.463928,586.730103 
	C536.658264,581.258362 544.018188,575.986450 550.971313,570.223694 
	C554.072449,567.653503 556.355164,564.095947 559.009460,561.015747 
	C559.009460,561.015747 558.981628,561.006836 559.582092,560.869751 
	C560.059509,560.251709 560.536926,559.633667 561.000000,559.000000 
	C561.000000,559.000000 561.015381,559.013977 561.710205,558.930603 
	C565.814941,554.302368 569.919678,549.674133 573.998901,545.000793 
	C573.998901,545.000793 574.045837,545.022461 574.735779,544.956360 
	C579.970703,540.528442 585.370483,536.226685 586.932922,528.945251 
	C586.932922,528.945251 586.986511,528.941345 587.654419,528.804138 
	C589.398315,526.160156 591.142212,523.516174 592.913147,520.943542 
	C592.913147,520.943542 592.841309,520.969482 593.336487,520.345886 
	C594.823303,513.627747 589.612976,501.993958 583.795288,498.209747 
	C583.795288,498.209747 583.515808,498.444702 583.411682,497.826294 
	C582.785828,497.345703 582.159912,496.865143 581.908630,496.211395 
	C581.908630,496.211395 581.547180,496.411072 581.602051,495.689484 
	C580.418640,491.693481 577.383545,490.112671 573.543152,489.516541 
	C573.543152,489.516541 573.520264,489.483582 573.392151,488.801788 
	C565.835999,484.861786 558.665649,479.620270 550.646301,477.242920 
	C531.863037,471.674744 512.682861,467.438782 493.638550,462.764679 
	C490.188416,461.917908 486.620056,461.553009 482.330688,460.921631 
	C481.869476,460.708496 481.408234,460.495361 480.625671,459.778290 
	C476.095734,458.168640 471.565826,456.559021 466.448639,454.929199 
	C465.957855,454.650024 465.467072,454.370880 464.751984,453.445923 
	C459.984894,450.371735 455.224762,447.286682 450.448181,444.227295 
	C447.481598,442.327209 444.490051,440.466064 441.403046,438.582520 
	C441.403046,438.582520 441.397919,438.475891 441.476807,437.741730 
	C440.902588,436.580597 440.236389,435.455170 439.769440,434.252441 
	C437.233765,427.721191 432.713257,421.656097 434.091736,414.134583 
	C434.980316,409.286133 435.941650,404.280609 437.968140,399.847260 
	C441.959198,391.115936 447.056427,382.890045 451.043762,374.157227 
	C454.172729,367.304321 456.319916,360.003143 458.973083,352.963562 
	C458.973083,352.963562 458.883850,352.935059 459.392303,352.487091 
	C459.797760,351.231171 460.203247,349.975220 460.992218,348.932098 
	C460.992218,348.932098 460.610352,348.709900 461.216492,348.318390 
	C461.736572,346.746185 462.256653,345.173981 462.781311,343.269989 
	C462.781311,343.269989 462.973907,342.999817 463.535126,342.595154 
	C464.188934,341.646393 465.103882,340.785248 465.456055,339.735352 
	C468.937164,329.357025 472.764557,319.067596 475.648560,308.521851 
	C481.821625,285.949188 484.884979,262.931976 483.975708,239.465546 
	C483.164825,218.537827 478.230438,198.735901 467.504547,180.634506 
	C465.475372,177.210007 462.233856,174.503891 459.473480,171.458267 
	C459.473480,171.458267 459.473053,171.379608 459.581207,170.674011 
	C458.714050,169.814331 457.846893,168.954651 456.890778,168.081726 
	C456.890778,168.081726 456.902374,167.992569 456.782196,167.469803 
	C456.383453,167.148163 455.984711,166.826508 455.461243,166.494263 
	C455.461243,166.494263 455.462982,166.369095 455.326630,165.926559 
	C455.157532,165.645081 454.913513,165.465027 454.878113,165.168976 
z"/>
<path fill="#FDFFFF" opacity="1.000000" stroke="none" 
	d="
M261.016785,16.990528 
	C261.016785,16.990530 260.649200,17.148907 260.101654,17.092281 
	C258.736786,17.417585 257.919495,17.799513 257.102173,18.181438 
	C256.577789,18.403755 256.053375,18.626074 254.968430,18.746857 
	C252.305420,19.498692 250.202972,20.352064 248.100525,21.205437 
	C248.100525,21.205435 247.780579,21.361177 247.314041,21.301962 
	C246.189255,21.607727 245.531006,21.972710 244.872757,22.337692 
	C244.471695,22.499739 244.070633,22.661779 243.226700,22.765284 
	C242.410934,22.668852 242.195374,22.830494 242.137115,23.191669 
	C242.137115,23.191669 242.026047,23.013590 241.735565,23.073399 
	C239.993835,23.805212 238.542572,24.477215 237.091324,25.149221 
	C237.091324,25.149225 237.050400,25.011505 236.787384,25.043077 
	C236.029343,25.367830 235.534317,25.661011 235.039307,25.954191 
	C205.375992,38.222740 177.225616,53.195137 151.421463,72.426407 
	C110.123306,103.205009 76.481644,140.765305 50.908379,185.508545 
	C28.696091,224.371384 13.880961,265.871918 7.291763,310.153076 
	C-5.841191,398.410034 9.279731,481.544861 55.819843,557.826050 
	C105.939331,639.974121 177.904953,694.736450 270.697815,720.732239 
	C348.184723,742.440186 425.095703,738.583435 500.200165,709.672546 
	C569.885376,682.847656 626.088867,638.240112 668.912537,577.008911 
	C699.330322,533.516174 719.158203,485.488831 728.519348,433.304199 
	C735.026306,397.030853 735.897766,360.511414 731.629028,323.814331 
	C724.841675,265.465546 705.211121,211.791641 672.393982,163.283768 
	C625.374817,93.783295 561.813965,45.564735 482.026611,19.065691 
	C456.486725,10.583358 430.332031,5.011854 403.463104,2.937324 
	C402.037079,2.827221 400.653870,2.162719 399.125366,1.378153 
	C511.649567,1.000000 624.299133,1.000000 736.974365,1.000000 
	C736.974365,246.279053 736.974365,491.558105 736.974365,736.918579 
	C491.758179,736.918579 246.516312,736.918579 1.137229,736.918579 
	C1.137229,491.666718 1.137229,246.333374 1.137229,1.000000 
	C112.763474,1.000000 224.413071,1.000000 336.531342,1.000000 
	C334.036316,1.744524 331.072662,2.489048 327.226746,3.111960 
	C320.613312,3.645407 314.846252,4.083330 309.161926,5.022190 
	C304.358490,5.815557 299.650940,7.189507 294.900970,8.306503 
	C294.469086,8.444285 294.037201,8.582062 292.983276,8.631474 
	C290.193359,9.107238 288.025513,9.671367 285.857635,10.235495 
	C285.443787,10.372000 285.029938,10.508505 284.027710,10.526354 
	C281.969910,10.911165 280.500488,11.414631 279.031097,11.918097 
	C279.031097,11.918096 278.936890,12.001619 278.472229,11.911077 
	C272.343964,13.543866 266.680389,15.267196 261.016785,16.990528 
z"/>
<path fill="#FAF7F6" opacity="1.000000" stroke="none" 
	d="
M163.300339,545.391541 
	C163.300339,545.391541 163.220535,545.140442 162.990112,544.782166 
	C161.336334,542.819702 159.912964,541.215454 158.489594,539.611267 
	C158.360153,539.739929 158.230728,539.868591 158.204559,539.525879 
	C157.890671,538.688354 157.473495,538.322083 157.056305,537.955872 
	C157.056305,537.955872 157.006699,537.992676 156.930984,537.644287 
	C154.774780,534.714844 152.694305,532.133667 150.613831,529.552551 
	C150.613831,529.552551 150.622406,529.474609 150.461273,529.167847 
	C149.228745,527.533569 148.157349,526.206116 147.085953,524.878601 
	C147.085953,524.878601 147.061035,524.943604 147.031998,524.632568 
	C146.374359,523.528931 145.745758,522.736328 145.117142,521.943787 
	C145.117142,521.943787 145.137939,521.894592 145.129517,521.512390 
	C148.113205,514.103882 151.105301,507.077576 154.097382,500.051239 
	C154.449982,499.713196 154.802597,499.375183 155.547455,498.648804 
	C160.462311,494.459320 164.984909,490.658203 169.507507,486.857086 
	C169.507507,486.857086 169.770493,486.841614 170.177963,486.642303 
	C182.728699,482.188263 194.871964,477.933563 207.015228,473.678833 
	C207.542191,473.605988 208.069168,473.533142 209.238251,473.321869 
	C213.114548,472.475708 216.359894,471.815002 219.581146,471.052582 
	C240.573151,466.084259 261.598907,461.141907 280.941803,451.171906 
	C288.905823,447.066956 296.567749,442.349945 301.096252,434.074646 
	C301.096252,434.074646 301.005066,434.011871 301.339722,433.874207 
	C303.261047,427.935883 306.002319,422.172058 306.188843,416.326752 
	C306.553070,404.914154 301.107727,395.032166 295.340820,385.497437 
	C295.340820,385.497437 295.228363,385.149170 295.041168,384.687378 
	C283.114014,361.402863 272.877075,337.968842 265.621948,313.289490 
	C257.382782,285.262726 253.071915,256.791595 257.101288,227.642593 
	C258.525757,217.337814 261.781311,207.286148 264.200897,197.118927 
	C264.200897,197.118927 264.104218,197.078857 264.427979,196.941254 
	C268.320618,189.992294 271.889526,183.180954 275.458435,176.369614 
	C275.311646,176.252075 275.164856,176.134521 275.498108,176.017883 
	C276.778687,174.784988 277.579193,173.551147 278.379700,172.317307 
	C278.379700,172.317307 278.022034,171.999069 278.466614,171.998993 
	C279.607697,171.000092 280.304169,170.001266 281.000671,169.002457 
	C281.000671,169.002457 281.000000,169.000000 281.302673,168.858124 
	C285.886597,164.393402 290.167877,160.070572 294.449158,155.747757 
	C294.449158,155.747757 294.632507,155.742889 294.932800,155.536743 
	C295.951569,154.668762 296.670013,154.006912 297.388458,153.345062 
	C297.388458,153.345062 297.301575,153.312180 297.651062,153.255249 
	C323.402008,134.912994 351.989899,129.131943 382.662476,131.799500 
	C403.976105,133.653122 423.448914,140.740097 441.029755,152.965775 
	C441.029755,152.965775 441.000000,153.000000 441.171326,153.277588 
	C444.063507,155.819366 446.784332,158.083572 449.505188,160.347778 
	C449.505188,160.347778 449.514374,160.491257 449.735596,160.755280 
	C450.890808,161.810745 451.824768,162.602173 452.758759,163.393600 
	C452.758759,163.393600 452.931946,163.765808 453.166870,164.130157 
	C453.806519,164.800339 454.211304,165.106186 454.616058,165.412018 
	C454.616058,165.412018 454.878113,165.168976 454.794373,165.507202 
	C454.876099,166.142639 455.126892,166.317184 455.462982,166.369095 
	C455.462982,166.369095 455.461243,166.494263 455.595276,166.749802 
	C456.120331,167.334427 456.511353,167.663498 456.902374,167.992584 
	C456.902374,167.992569 456.890778,168.081726 457.001587,168.380035 
	C457.899292,169.578766 458.686188,170.479187 459.473053,171.379608 
	C459.473053,171.379608 459.473480,171.458267 459.645874,171.771057 
	C471.354706,187.429062 477.982941,204.764420 480.912964,223.647934 
	C485.492249,253.160873 481.524750,281.955750 473.502106,310.349548 
	C470.394897,321.346619 466.506439,332.122925 462.973907,342.999817 
	C462.973907,342.999817 462.781311,343.269989 462.516937,343.671539 
	C461.705170,345.618683 461.157745,347.164307 460.610352,348.709900 
	C460.610352,348.709900 460.992218,348.932098 460.566284,349.058868 
	C459.721527,350.435455 459.302704,351.685272 458.883850,352.935059 
	C458.883850,352.935059 458.973083,352.963562 458.666565,353.143677 
	C457.428162,355.448639 456.549835,357.598969 455.555756,359.694305 
	C449.024048,373.462128 441.903503,386.984711 436.082977,401.045898 
	C430.647797,414.176147 430.664276,427.278076 441.397919,438.475891 
	C441.397919,438.475891 441.403046,438.582520 441.602264,438.877930 
	C448.269073,446.099335 456.076691,450.943665 464.976288,454.091736 
	C465.467072,454.370880 465.957855,454.650024 466.971619,455.195740 
	C471.978729,457.068939 476.462891,458.675598 480.947021,460.282227 
	C481.408234,460.495361 481.869476,460.708496 482.978302,461.178467 
	C492.893799,464.002716 502.126007,466.708496 511.436798,469.109619 
	C532.575867,474.561127 554.536438,477.473663 573.520264,489.483582 
	C573.520264,489.483582 573.543152,489.516541 573.732300,489.799713 
	C576.463379,492.192291 579.005249,494.301697 581.547180,496.411072 
	C581.547180,496.411072 581.908630,496.211395 581.834229,496.572693 
	C582.345215,497.437531 582.930481,497.941101 583.515808,498.444702 
	C583.515808,498.444702 583.795288,498.209747 583.774902,498.663971 
	C585.205139,501.323975 587.098389,503.361572 588.013977,505.770721 
	C589.899597,510.731903 591.263000,515.891541 592.841309,520.969482 
	C592.841309,520.969482 592.913147,520.943542 592.604370,521.065063 
	C590.525879,523.771484 588.756165,526.356384 586.986511,528.941345 
	C586.986511,528.941345 586.932922,528.945251 586.647888,529.124512 
	C582.257202,534.543274 578.151489,539.782898 574.045837,545.022461 
	C574.045837,545.022461 573.998901,545.000793 573.710205,545.162781 
	C569.286133,549.887878 565.150757,554.450928 561.015381,559.013977 
	C561.015381,559.013977 561.000000,559.000000 560.737000,559.123169 
	C559.976501,559.833130 559.479065,560.419983 558.981628,561.006836 
	C558.981628,561.006836 559.009460,561.015747 558.688843,561.105408 
	C548.489563,569.712341 538.610901,578.229614 528.732300,586.746887 
	C528.732300,586.746887 528.831116,586.779236 528.419312,586.799072 
	C526.049866,587.044434 524.092224,587.270020 521.664185,587.413208 
	C421.459808,587.324524 321.725861,587.320374 221.991943,587.305359 
	C217.664932,587.304688 213.337906,587.204468 208.898712,586.946655 
	C208.786530,586.742798 208.348312,586.585815 208.348312,586.585815 
	C208.233322,586.716736 208.118347,586.847595 207.980515,586.520447 
	C205.626358,584.406433 203.295059,582.750427 200.963760,581.094421 
	C200.963760,581.094421 200.970306,581.029297 200.808258,580.737305 
	C198.885651,579.145569 197.125092,577.845886 195.364532,576.546204 
	C195.364532,576.546204 195.176834,576.910767 195.124374,576.453857 
	C193.227417,574.494141 191.382904,572.991272 189.538391,571.488403 
	C189.538406,571.488403 189.341370,571.706360 189.256653,571.328979 
	C188.528961,570.480469 187.885986,570.009338 187.243011,569.538269 
	C187.242996,569.538269 186.990753,569.201172 186.645325,568.847168 
	C182.229538,564.632568 178.159180,560.772034 174.088821,556.911438 
	C174.088821,556.911438 174.000000,557.000000 173.931824,556.643860 
	C171.005753,553.405151 168.147858,550.522644 165.289948,547.640076 
	C165.289948,547.640076 165.200974,547.776978 165.163605,547.427795 
	C164.517593,546.516235 163.908966,545.953918 163.300339,545.391541 
z"/>
<path fill="#0C8DB4" opacity="1.000000" stroke="none" 
	d="
M209.010895,587.150635 
	C213.337906,587.204468 217.664932,587.304688 221.991943,587.305359 
	C321.725861,587.320374 421.459808,587.324524 521.748962,587.573242 
	C522.483643,587.982910 522.681396,588.124695 522.897400,588.240967 
	C520.768860,588.493042 518.640320,588.964844 516.511719,588.965637 
	C416.236816,589.003601 315.961884,589.003906 215.686966,588.979309 
	C213.711792,588.978821 211.736725,588.631958 209.414307,588.024963 
	C209.067001,587.603210 209.010895,587.150635 209.010895,587.150635 
z"/>
<path fill="#399ABB" opacity="1.000000" stroke="none" 
	d="
M263.933411,197.341370 
	C261.781311,207.286148 258.525757,217.337814 257.101288,227.642593 
	C253.071915,256.791595 257.382782,285.262726 265.621948,313.289490 
	C272.877075,337.968842 283.114014,361.402863 294.898804,384.572388 
	C291.784637,380.228088 288.019562,375.826660 285.607300,370.778748 
	C281.900482,363.021973 279.238464,354.773102 275.931610,346.816803 
	C261.461639,312.002106 252.348618,276.067047 254.188812,238.068268 
	C254.864639,224.112671 257.349670,210.324631 263.933411,197.341370 
z"/>
<path fill="#399ABB" opacity="1.000000" stroke="none" 
	d="
M463.254517,342.797485 
	C466.506439,332.122925 470.394897,321.346619 473.502106,310.349548 
	C481.524750,281.955750 485.492249,253.160873 480.912964,223.647934 
	C477.982941,204.764420 471.354706,187.429062 459.684998,171.775055 
	C462.233856,174.503891 465.475372,177.210007 467.504547,180.634506 
	C478.230438,198.735901 483.164825,218.537827 483.975708,239.465546 
	C484.884979,262.931976 481.821625,285.949188 475.648560,308.521851 
	C472.764557,319.067596 468.937164,329.357025 465.456055,339.735352 
	C465.103882,340.785248 464.188934,341.646393 463.254517,342.797485 
z"/>
<path fill="#399ABB" opacity="1.000000" stroke="none" 
	d="
M440.941406,152.639557 
	C423.448914,140.740097 403.976105,133.653122 382.662476,131.799500 
	C351.989899,129.131943 323.402008,134.912994 297.668335,153.298386 
	C298.977478,151.591599 300.317688,149.307343 302.307159,148.052322 
	C320.761993,136.410446 341.086304,131.078506 362.783539,130.025452 
	C382.886627,129.049789 402.397766,131.757202 420.868073,139.584290 
	C428.039886,142.623444 434.220795,148.000992 440.941406,152.639557 
z"/>
<path fill="#399ABB" opacity="1.000000" stroke="none" 
	d="
M300.758942,434.140564 
	C296.567749,442.349945 288.905823,447.066956 280.941803,451.171906 
	C261.598907,461.141907 240.573151,466.084259 219.581146,471.052582 
	C216.359894,471.815002 213.114548,472.475708 209.454926,473.161865 
	C210.788391,472.260651 212.458847,471.020721 214.321411,470.563599 
	C222.521698,468.550873 230.850937,467.034363 238.992767,464.820709 
	C247.477158,462.513885 256.071533,460.247620 264.121124,456.802979 
	C273.048370,452.982758 281.578217,448.126953 289.950775,443.164825 
	C293.843506,440.857727 296.955627,437.233612 300.758942,434.140564 
z"/>
<path fill="#399ABB" opacity="1.000000" stroke="none" 
	d="
M573.456177,489.142700 
	C554.536438,477.473663 532.575867,474.561127 511.436798,469.109619 
	C502.126007,466.708496 492.893799,464.002716 483.366089,461.200439 
	C486.620056,461.553009 490.188416,461.917908 493.638550,462.764679 
	C512.682861,467.438782 531.863037,471.674744 550.646301,477.242920 
	C558.665649,479.620270 565.835999,484.861786 573.456177,489.142700 
z"/>
<path fill="#399ABB" opacity="1.000000" stroke="none" 
	d="
M441.437378,438.108826 
	C430.664276,427.278076 430.647797,414.176147 436.082977,401.045898 
	C441.903503,386.984711 449.024048,373.462128 455.555756,359.694305 
	C456.549835,357.598969 457.428162,355.448639 458.631622,353.112427 
	C456.319916,360.003143 454.172729,367.304321 451.043762,374.157227 
	C447.056427,382.890045 441.959198,391.115936 437.968140,399.847260 
	C435.941650,404.280609 434.980316,409.286133 434.091736,414.134583 
	C432.713257,421.656097 437.233765,427.721191 439.769440,434.252441 
	C440.236389,435.455170 440.902588,436.580597 441.437378,438.108826 
z"/>
<path fill="#399ABB" opacity="1.000000" stroke="none" 
	d="
M295.266876,385.903046 
	C301.107727,395.032166 306.553070,404.914154 306.188843,416.326752 
	C306.002319,422.172058 303.261047,427.935883 301.379150,433.913239 
	C301.799164,431.455902 302.261475,428.719482 303.278198,426.207458 
	C306.058136,419.339172 305.057068,412.680817 302.601105,406.046356 
	C300.161499,399.456116 297.664673,392.887024 295.266876,385.903046 
z"/>
<path fill="#399ABB" opacity="1.000000" stroke="none" 
	d="
M529.098145,586.738525 
	C538.610901,578.229614 548.489563,569.712341 558.688721,561.090759 
	C556.355164,564.095947 554.072449,567.653503 550.971313,570.223694 
	C544.018188,575.986450 536.658264,581.258362 529.098145,586.738525 
z"/>
<path fill="#399ABB" opacity="1.000000" stroke="none" 
	d="
M206.678162,473.526886 
	C194.871964,477.933563 182.728699,482.188263 170.254059,486.534790 
	C174.844879,483.812195 179.491867,480.202850 184.757294,478.380066 
	C191.697723,475.977448 199.123795,474.977722 206.678162,473.526886 
z"/>
<path fill="#399ABB" opacity="1.000000" stroke="none" 
	d="
M464.864136,453.768829 
	C456.076691,450.943665 448.269073,446.099335 441.655579,438.880371 
	C444.490051,440.466064 447.481598,442.327209 450.448181,444.227295 
	C455.224762,447.286682 459.984894,450.371735 464.864136,453.768829 
z"/>
<path fill="#399ABB" opacity="1.000000" stroke="none" 
	d="
M275.122375,176.462036 
	C271.889526,183.180954 268.320618,189.992294 264.460419,196.982300 
	C265.502594,189.155716 268.889465,182.208496 275.122375,176.462036 
z"/>
<path fill="#B6EAF8" opacity="1.000000" stroke="none" 
	d="
M295.289612,8.377178 
	C299.650940,7.189507 304.358490,5.815557 309.161926,5.022190 
	C314.846252,4.083330 320.613312,3.645407 326.799927,3.105957 
	C316.729645,4.963664 306.203949,6.705760 295.289612,8.377178 
z"/>
<path fill="#399ABB" opacity="1.000000" stroke="none" 
	d="
M574.390808,544.989380 
	C578.151489,539.782898 582.257202,534.543274 586.653442,529.150757 
	C585.370483,536.226685 579.970703,540.528442 574.390808,544.989380 
z"/>
<path fill="#399ABB" opacity="1.000000" stroke="none" 
	d="
M153.761566,500.131714 
	C151.105301,507.077576 148.113205,514.103882 145.105042,521.501831 
	C144.943817,519.840942 144.031342,517.442871 144.793625,515.842651 
	C147.348663,510.478943 150.501678,505.400116 153.761566,500.131714 
z"/>
<path fill="#399ABB" opacity="1.000000" stroke="none" 
	d="
M593.088867,520.657715 
	C591.263000,515.891541 589.899597,510.731903 588.013977,505.770721 
	C587.098389,503.361572 585.205139,501.323975 583.646790,498.794067 
	C589.612976,501.993958 594.823303,513.627747 593.088867,520.657715 
z"/>
<path fill="#399ABB" opacity="1.000000" stroke="none" 
	d="
M561.362793,558.972290 
	C565.150757,554.450928 569.286133,549.887878 573.722961,545.185303 
	C569.919678,549.674133 565.814941,554.302368 561.362793,558.972290 
z"/>
<path fill="#399ABB" opacity="1.000000" stroke="none" 
	d="
M294.100708,155.681793 
	C290.167877,160.070572 285.886597,164.393402 281.303833,168.858307 
	C283.251129,162.632568 288.074402,158.717178 294.100708,155.681793 
z"/>
<path fill="#399ABB" opacity="1.000000" stroke="none" 
	d="
M169.155304,486.870422 
	C164.984909,490.658203 160.462311,494.459320 155.632874,498.415283 
	C156.917252,491.329010 163.252304,489.558594 169.155304,486.870422 
z"/>
<path fill="#399ABB" opacity="1.000000" stroke="none" 
	d="
M174.141113,557.250427 
	C178.159180,560.772034 182.229538,564.632568 186.449890,568.768921 
	C182.464401,565.226196 178.328903,561.407837 174.141113,557.250427 
z"/>
<path fill="#399ABB" opacity="1.000000" stroke="none" 
	d="
M480.786346,460.030273 
	C476.462891,458.675598 471.978729,457.068939 467.265259,455.205811 
	C471.565826,456.559021 476.095734,458.168640 480.786346,460.030273 
z"/>
<path fill="#B6EAF8" opacity="1.000000" stroke="none" 
	d="
M261.413086,17.021925 
	C266.680389,15.267196 272.343964,13.543866 278.414001,11.887130 
	C273.150085,13.653590 267.479736,15.353456 261.413086,17.021925 
z"/>
<path fill="#399ABB" opacity="1.000000" stroke="none" 
	d="
M165.354065,547.986572 
	C168.147858,550.522644 171.005753,553.405151 173.977386,556.601196 
	C171.200134,554.054077 168.309143,551.193542 165.354065,547.986572 
z"/>
<path fill="#399ABB" opacity="1.000000" stroke="none" 
	d="
M449.526978,159.996994 
	C446.784332,158.083572 444.063507,155.819366 441.187378,153.261261 
	C443.871002,155.193665 446.709900,157.419937 449.526978,159.996994 
z"/>
<path fill="#399ABB" opacity="1.000000" stroke="none" 
	d="
M150.531677,529.914795 
	C152.694305,532.133667 154.774780,534.714844 156.951263,537.620911 
	C154.847992,535.389587 152.648758,532.833374 150.531677,529.914795 
z"/>
<path fill="#399ABB" opacity="1.000000" stroke="none" 
	d="
M581.574585,496.050293 
	C579.005249,494.301697 576.463379,492.192291 573.749573,489.809998 
	C577.383545,490.112671 580.418640,491.693481 581.574585,496.050293 
z"/>
<path fill="#399ABB" opacity="1.000000" stroke="none" 
	d="
M587.320435,528.872742 
	C588.756165,526.356384 590.525879,523.771484 592.590820,521.029297 
	C591.142212,523.516174 589.398315,526.160156 587.320435,528.872742 
z"/>
<path fill="#399ABB" opacity="1.000000" stroke="none" 
	d="
M201.052109,581.423340 
	C203.295059,582.750427 205.626358,584.406433 208.150085,586.321167 
	C205.941849,584.970764 203.541153,583.361511 201.052109,581.423340 
z"/>
<path fill="#399ABB" opacity="1.000000" stroke="none" 
	d="
M189.579163,571.833862 
	C191.382904,572.991272 193.227417,574.494141 195.230850,576.278564 
	C193.466507,575.099792 191.543228,573.639526 189.579163,571.833862 
z"/>
<path fill="#399ABB" opacity="1.000000" stroke="none" 
	d="
M158.464828,539.960938 
	C159.912964,541.215454 161.336334,542.819702 162.867203,544.734863 
	C161.463150,543.467346 159.951599,541.888977 158.464828,539.960938 
z"/>
<path fill="#399ABB" opacity="1.000000" stroke="none" 
	d="
M195.424805,576.897278 
	C197.125092,577.845886 198.885651,579.145569 200.776215,580.743958 
	C199.099182,579.777893 197.292130,578.513123 195.424805,576.897278 
z"/>
<path fill="#B6EAF8" opacity="1.000000" stroke="none" 
	d="
M286.223022,10.315444 
	C288.025513,9.671367 290.193359,9.107238 292.642822,8.656092 
	C290.812408,9.311180 288.700409,9.853287 286.223022,10.315444 
z"/>
<path fill="#B6EAF8" opacity="1.000000" stroke="none" 
	d="
M248.476318,21.224972 
	C250.202972,20.352064 252.305420,19.498692 254.678574,18.769215 
	C252.916901,19.676910 250.884506,20.460707 248.476318,21.224972 
z"/>
<path fill="#399ABB" opacity="1.000000" stroke="none" 
	d="
M147.085907,525.241089 
	C148.157349,526.206116 149.228745,527.533569 150.423126,529.158691 
	C149.392685,528.172119 148.239258,526.887878 147.085907,525.241089 
z"/>
<path fill="#399ABB" opacity="1.000000" stroke="none" 
	d="
M278.046082,172.409546 
	C277.579193,173.551147 276.778687,174.784988 275.715088,176.198181 
	C276.205505,175.085617 276.958984,173.793701 278.046082,172.409546 
z"/>
<path fill="#399ABB" opacity="1.000000" stroke="none" 
	d="
M459.527130,171.026810 
	C458.686188,170.479187 457.899292,169.578766 457.046051,168.386658 
	C457.846893,168.954651 458.714050,169.814331 459.527130,171.026810 
z"/>
<path fill="#B6EAF8" opacity="1.000000" stroke="none" 
	d="
M279.398804,11.971588 
	C280.500488,11.414631 281.969910,10.911165 283.701172,10.556057 
	C282.564209,11.144636 281.165375,11.584858 279.398804,11.971588 
z"/>
<path fill="#399ABB" opacity="1.000000" stroke="none" 
	d="
M452.726685,163.044373 
	C451.824768,162.602173 450.890808,161.810745 449.807495,160.754883 
	C450.670319,161.225342 451.682434,161.960251 452.726685,163.044373 
z"/>
<path fill="#399ABB" opacity="1.000000" stroke="none" 
	d="
M280.672668,169.084854 
	C280.304169,170.001266 279.607697,171.000092 278.648315,172.155640 
	C279.038513,171.263992 279.691620,170.215622 280.672668,169.084854 
z"/>
<path fill="#399ABB" opacity="1.000000" stroke="none" 
	d="
M460.913422,348.514160 
	C461.157745,347.164307 461.705170,345.618683 462.514648,343.837433 
	C462.256653,345.173981 461.736572,346.746185 460.913422,348.514160 
z"/>
<path fill="#399ABB" opacity="1.000000" stroke="none" 
	d="
M523.277710,588.214600 
	C522.681396,588.124695 522.483643,587.982910 522.219421,587.655640 
	C524.092224,587.270020 526.049866,587.044434 528.433899,586.749146 
	C528.374146,587.105164 527.888000,587.530945 526.830139,588.059814 
	C525.899353,588.168701 525.540161,588.174377 525.181030,588.180054 
	C524.673401,588.182739 524.165710,588.185486 523.277710,588.214600 
z"/>
<path fill="#B6EAF8" opacity="1.000000" stroke="none" 
	d="
M237.444794,25.170849 
	C238.542572,24.477215 239.993835,23.805212 241.798721,23.157486 
	C240.700989,23.852003 239.249619,24.522242 237.444794,25.170849 
z"/>
<path fill="#399ABB" opacity="1.000000" stroke="none" 
	d="
M145.110031,522.277466 
	C145.745758,522.736328 146.374359,523.528931 147.066284,524.626709 
	C146.454056,524.158325 145.778488,523.384705 145.110031,522.277466 
z"/>
<path fill="#399ABB" opacity="1.000000" stroke="none" 
	d="
M459.138092,352.711060 
	C459.302704,351.685272 459.721527,350.435455 460.374512,348.952454 
	C460.203247,349.975220 459.797760,351.231171 459.138092,352.711060 
z"/>
<path fill="#B6EAF8" opacity="1.000000" stroke="none" 
	d="
M245.158081,22.395733 
	C245.531006,21.972710 246.189255,21.607727 247.136200,21.306982 
	C246.764389,21.732069 246.103912,22.092922 245.158081,22.395733 
z"/>
<path fill="#399ABB" opacity="1.000000" stroke="none" 
	d="
M163.339569,545.729736 
	C163.908966,545.953918 164.517593,546.516235 165.227829,547.377441 
	C164.679214,547.140137 164.029007,546.604004 163.339569,545.729736 
z"/>
<path fill="#399ABB" opacity="1.000000" stroke="none" 
	d="
M297.072083,153.399628 
	C296.670013,154.006912 295.951569,154.668762 294.958496,155.448700 
	C295.374451,154.862610 296.065063,154.158401 297.072083,153.399628 
z"/>
<path fill="#399ABB" opacity="1.000000" stroke="none" 
	d="
M559.281860,560.938293 
	C559.479065,560.419983 559.976501,559.833130 560.744141,559.130981 
	C560.536926,559.633667 560.059509,560.251709 559.281860,560.938293 
z"/>
<path fill="#399ABB" opacity="1.000000" stroke="none" 
	d="
M187.339508,569.845154 
	C187.885986,570.009338 188.528961,570.480469 189.338348,571.206909 
	C188.815170,571.025452 188.125595,570.588745 187.339508,569.845154 
z"/>
<path fill="#B6EAF8" opacity="1.000000" stroke="none" 
	d="
M257.442963,18.193367 
	C257.919495,17.799513 258.736786,17.417585 259.901855,17.104080 
	C259.427673,17.516769 258.605713,17.861032 257.442963,18.193367 
z"/>
<path fill="#399ABB" opacity="1.000000" stroke="none" 
	d="
M583.463745,498.135498 
	C582.930481,497.941101 582.345215,497.437531 581.646973,496.659241 
	C582.159912,496.865143 582.785828,497.345703 583.463745,498.135498 
z"/>
<path fill="#399ABB" opacity="1.000000" stroke="none" 
	d="
M456.842285,167.731201 
	C456.511353,167.663498 456.120331,167.334427 455.657654,166.755096 
	C455.984711,166.826508 456.383453,167.148163 456.842285,167.731201 
z"/>
<path fill="#399ABB" opacity="1.000000" stroke="none" 
	d="
M157.131470,538.234009 
	C157.473495,538.322083 157.890671,538.688354 158.392792,539.328064 
	C158.054047,539.238403 157.630341,538.875244 157.131470,538.234009 
z"/>
<path fill="#399ABB" opacity="1.000000" stroke="none" 
	d="
M454.548431,165.158890 
	C454.211304,165.106186 453.806519,164.800339 453.338226,164.243134 
	C453.676727,164.296432 454.078766,164.601105 454.548431,165.158890 
z"/>
<path fill="#B6EAF8" opacity="1.000000" stroke="none" 
	d="
M235.334351,25.985683 
	C235.534317,25.661011 236.029343,25.367830 236.819153,25.107929 
	C236.619095,25.433195 236.124252,25.725183 235.334351,25.985683 
z"/>
<path fill="#0C8DB4" opacity="1.000000" stroke="none" 
	d="
M525.326050,588.289917 
	C525.540161,588.174377 525.899353,588.168701 526.525879,588.179932 
	C526.352539,588.264526 525.911804,588.332153 525.326050,588.289917 
z"/>
<path fill="#399ABB" opacity="1.000000" stroke="none" 
	d="
M455.394806,166.147827 
	C455.126892,166.317184 454.876099,166.142639 454.652588,165.615936 
	C454.913513,165.465027 455.157532,165.645081 455.394806,166.147827 
z"/>
<path fill="#399ABB" opacity="1.000000" stroke="none" 
	d="
M208.898712,586.946716 
	C209.010895,587.150635 209.067001,587.603210 209.053452,587.831421 
	C208.853073,587.745605 208.666245,587.431641 208.413864,586.851746 
	C208.348312,586.585815 208.786530,586.742798 208.898712,586.946716 
z"/>
<path fill="#B6EAF8" opacity="1.000000" stroke="none" 
	d="
M242.387009,23.209450 
	C242.195374,22.830494 242.410934,22.668852 242.903442,22.807350 
	C242.894348,23.014381 242.765625,23.120804 242.387009,23.209450 
z"/>
</svg>