<?xml version="1.0" encoding="UTF-8"?>
<!DOCTYPE svg PUBLIC "-//W3C//DTD SVG 1.1//EN" "http://www.w3.org/Graphics/SVG/1.1/DTD/svg11.dtd">
<svg xmlns="http://www.w3.org/2000/svg" version="1.1" width="500px" height="500px" style="shape-rendering:geometricPrecision; text-rendering:geometricPrecision; image-rendering:optimizeQuality; fill-rule:evenodd; clip-rule:evenodd" xmlns:xlink="http://www.w3.org/1999/xlink">
<g><path style="opacity:0.992" fill="#4096c6" d="M 285.5,80.5 C 312.391,77.5556 327.225,89.5556 330,116.5C 330.396,146.519 324.396,175.186 312,202.5C 309.105,209.292 305.438,215.625 301,221.5C 300.308,220.975 299.808,220.308 299.5,219.5C 303.429,207.547 307.262,195.547 311,183.5C 315.021,165.027 316.688,146.36 316,127.5C 313.278,98.2079 297.778,88.0413 269.5,97C 262.249,99.425 255.582,102.925 249.5,107.5C 249.167,107 248.833,106.5 248.5,106C 253.1,100.067 258.433,94.7333 264.5,90C 271.201,85.9431 278.201,82.7764 285.5,80.5 Z"/></g>
<g><path style="opacity:0.984" fill="#5cc6d0" d="M 204.5,92.5 C 211.604,93.2132 218.271,95.3799 224.5,99C 237.084,108.247 249.084,118.247 260.5,129C 268.579,133.469 277.246,135.469 286.5,135C 277.59,140.06 268.256,140.727 258.5,137C 247.963,131.567 238.296,124.901 229.5,117C 210.053,103.139 198.22,107.973 194,131.5C 191.334,157.167 197,180.834 211,202.5C 214.799,207.301 218.966,211.801 223.5,216C 228.727,218.31 232.56,216.81 235,211.5C 238.488,203.19 242.488,195.19 247,187.5C 254,179.959 261.333,179.625 269,186.5C 275.428,196.352 281.095,206.685 286,217.5C 286.749,218.635 286.583,219.635 285.5,220.5C 279.448,214.942 274.281,208.608 270,201.5C 267.42,197.894 264.087,195.56 260,194.5C 256.94,194.225 254.94,195.558 254,198.5C 249.195,210.581 244.195,222.581 239,234.5C 236.962,239.232 233.462,241.399 228.5,241C 225.007,240.058 221.674,238.725 218.5,237C 212.957,231.126 207.79,224.959 203,218.5C 188.061,193.015 179.561,165.515 177.5,136C 178.256,124.144 181.422,112.977 187,102.5C 192.012,97.4195 197.845,94.0862 204.5,92.5 Z"/></g>
<g><path style="opacity:0.92" fill="#60c9d3" d="M 143.5,190.5 C 151.162,189.088 157.328,191.421 162,197.5C 162.483,198.448 162.649,199.448 162.5,200.5C 158.653,197.747 154.32,195.747 149.5,194.5C 146.373,195.125 143.373,196.125 140.5,197.5C 138.649,199.776 136.982,202.109 135.5,204.5C 134.585,203.672 133.919,202.672 133.5,201.5C 134.815,195.858 138.148,192.191 143.5,190.5 Z"/></g>
<g><path style="opacity:0.91" fill="#61c9d4" d="M 339.5,190.5 C 349.124,188.803 355.457,192.47 358.5,201.5C 358.167,202.167 357.833,202.833 357.5,203.5C 356.833,204.833 356.167,204.833 355.5,203.5C 353.431,197.448 349.097,194.448 342.5,194.5C 338.003,195.331 334.169,197.331 331,200.5C 330.5,200.167 330,199.833 329.5,199.5C 331.634,195.026 334.968,192.026 339.5,190.5 Z"/></g>
<g><path style="opacity:0.976" fill="#5ec7d1" d="M 149.5,202.5 C 153.805,217.58 162.805,229.08 176.5,237C 224.319,260.456 271.986,260.123 319.5,236C 331.932,227.976 340.099,216.809 344,202.5C 345.303,209.7 344.303,216.7 341,223.5C 327.194,244.166 308.027,256.999 283.5,262C 245.416,271.075 209.416,266.075 175.5,247C 160.479,237.289 151.479,223.622 148.5,206C 148.648,204.744 148.982,203.577 149.5,202.5 Z"/></g>
<g><path style="opacity:0.983" fill="#60c7d2" d="M 214.5,276.5 C 215.583,276.539 216.583,276.873 217.5,277.5C 218.833,283.833 218.833,290.167 217.5,296.5C 216.28,297.711 215.113,297.711 214,296.5C 213.208,289.753 213.374,283.086 214.5,276.5 Z"/></g>
<g><path style="opacity:0.971" fill="#5ec6d0" d="M 308.5,276.5 C 309.496,276.414 310.329,276.748 311,277.5C 311.333,280.5 311.667,283.5 312,286.5C 313.715,283.603 316.215,282.269 319.5,282.5C 319.256,285.263 317.923,287.429 315.5,289C 318.934,291.301 319.767,294.134 318,297.5C 315.708,296.21 313.708,294.543 312,292.5C 312.017,297.207 310.35,298.207 307,295.5C 306.333,289.833 306.333,284.167 307,278.5C 307.717,277.956 308.217,277.289 308.5,276.5 Z"/></g>
<g><path style="opacity:0.949" fill="#60c8d2" d="M 159.5,277.5 C 162.807,277.063 165.807,277.73 168.5,279.5C 169.747,281.006 169.747,282.506 168.5,284C 166.742,283.656 164.909,283.156 163,282.5C 162.167,282.833 161.333,283.167 160.5,283.5C 162.925,285.145 165.592,286.311 168.5,287C 171.379,292.74 169.545,296.24 163,297.5C 158.571,297.674 156.071,295.674 155.5,291.5C 158.049,291.387 160.382,292.054 162.5,293.5C 163.5,293.167 164.167,292.5 164.5,291.5C 161.629,290.051 158.795,288.385 156,286.5C 155.333,284.833 155.333,283.167 156,281.5C 157.376,280.295 158.542,278.962 159.5,277.5 Z"/></g>
<g><path style="opacity:0.93" fill="#5ec7d1" d="M 243.5,277.5 C 244.496,277.414 245.329,277.748 246,278.5C 247.637,281.717 248.97,285.05 250,288.5C 253,279.167 256,279.167 259,288.5C 259.803,284.217 261.637,280.551 264.5,277.5C 266.446,279.044 266.946,281.044 266,283.5C 264.578,288.175 262.745,292.675 260.5,297C 259.551,297.617 258.718,297.451 258,296.5C 256.478,294.259 255.145,291.926 254,289.5C 253.402,292.308 252.235,294.808 250.5,297C 249.004,297.507 247.837,297.007 247,295.5C 245.297,290.725 243.797,285.892 242.5,281C 242.648,279.744 242.982,278.577 243.5,277.5 Z"/></g>
<g><path style="opacity:0.976" fill="#61c7d2" d="M 177.5,281.5 C 179.432,282.653 181.432,282.653 183.5,281.5C 185.055,281.722 186.389,282.389 187.5,283.5C 189.996,281.047 192.662,280.88 195.5,283C 196.377,285.915 197.043,288.915 197.5,292C 197.342,294.149 196.508,295.983 195,297.5C 194.586,297.043 194.086,296.709 193.5,296.5C 192.5,293.167 191.5,289.833 190.5,286.5C 189.914,286.709 189.414,287.043 189,287.5C 188.667,290.167 188.333,292.833 188,295.5C 186.667,298.167 185.333,298.167 184,295.5C 183.502,292.518 183.335,289.518 183.5,286.5C 182.5,286.5 181.5,286.5 180.5,286.5C 180.665,289.518 180.498,292.518 180,295.5C 179.072,297.335 177.906,297.668 176.5,296.5C 174.977,291.233 175.31,286.233 177.5,281.5 Z"/></g>
<g><path style="opacity:0.913" fill="#5fc6d1" d="M 229.5,281.5 C 234.159,281.991 237.159,284.491 238.5,289C 235.779,290.651 235.446,292.318 237.5,294C 234.532,297.859 230.865,298.526 226.5,296C 221.882,289.848 222.882,285.014 229.5,281.5 Z M 228.5,292.5 C 230.288,291.378 232.288,291.211 234.5,292C 232.598,293.796 230.598,293.963 228.5,292.5 Z"/></g>
<g><path style="opacity:0.981" fill="#60c7d2" d="M 276.5,281.5 C 282.125,281.624 285.459,284.458 286.5,290C 284.52,296.781 280.186,298.781 273.5,296C 269.383,290.17 270.383,285.337 276.5,281.5 Z M 276.5,286.5 C 282.116,287.401 282.783,289.734 278.5,293.5C 275.497,291.822 274.831,289.489 276.5,286.5 Z"/></g>
<g><path style="opacity:0.981" fill="#62c8d3" d="M 293.5,281.5 C 295.28,282.755 297.113,282.755 299,281.5C 300.434,281.93 301.601,282.764 302.5,284C 301.045,286.016 299.045,286.849 296.5,286.5C 296.665,289.518 296.498,292.518 296,295.5C 295.072,297.335 293.906,297.668 292.5,296.5C 290.977,291.233 291.31,286.233 293.5,281.5 Z"/></g>
<g><path style="opacity:0.949" fill="#60c7d2" d="M 328.5,281.5 C 331.99,281.245 334.657,282.578 336.5,285.5C 335.91,286.799 334.91,287.632 333.5,288C 337.424,291.182 337.424,294.182 333.5,297C 329.554,298.076 326.554,296.91 324.5,293.5C 325.09,292.201 326.09,291.368 327.5,291C 323.561,287.38 323.894,284.214 328.5,281.5 Z M 328.5,291.5 C 329.922,291.709 331.255,292.209 332.5,293C 330.537,293.844 329.204,293.344 328.5,291.5 Z"/></g>
<g><path style="opacity:1" fill="#67c9d4" d="M 203.5,277.5 C 204.833,277.5 206.167,277.5 207.5,277.5C 207.83,283.868 207.496,290.202 206.5,296.5C 205.094,297.668 203.928,297.335 203,295.5C 202.527,289.296 202.694,283.296 203.5,277.5 Z"/></g>
</svg>
